<?xml version="1.0" encoding="utf-8"?>
<!-- Generator: Adobe Illustrator 24.0.1, SVG Export Plug-In . SVG Version: 6.00 Build 0)  -->
<svg version="1.1" id="Layer_1" xmlns="http://www.w3.org/2000/svg" xmlns:xlink="http://www.w3.org/1999/xlink" x="0px" y="0px"
	 viewBox="0 0 72 72" style="enable-background:new 0 0 72 72;" xml:space="preserve">
<style type="text/css">
	.st0{fill:#EA2127;}
	.st1{fill:#676767;}
</style>
<g>
	<g>
		<g>
			<path class="st0" d="M29,44c0.3,0.9,0.8,1.7,1.3,2.3c0.6,0.7,1.3,1.1,2.2,1.5c0.8,0.3,1.9,0.5,2.9,0.5c0.9,0,1.8-0.2,2.6-0.4
				s1.6-0.7,2.3-1.2c0.7-0.5,1.2-1.2,1.6-1.9c0.4-0.8,0.6-1.6,0.6-2.6c0-1-0.2-1.9-0.5-2.6c-0.3-0.8-0.8-1.3-1.4-1.9
				c-0.6-0.5-1.3-0.8-2.1-1.1c-0.8-0.3-1.7-0.3-2.6-0.3h-2v-2.1H36c0.7,0,1.3-0.1,1.9-0.3c0.7-0.2,1.3-0.5,1.9-0.9
				c0.5-0.4,1-0.9,1.3-1.6s0.5-1.3,0.5-2.3s-0.2-1.7-0.5-2.4c-0.3-0.7-0.8-1.2-1.3-1.6c-0.5-0.4-1.2-0.8-1.9-0.9
				C37.3,24,36.4,24,35.6,24c-1,0-1.9,0.2-2.7,0.5c-0.8,0.3-1.4,0.8-2,1.4c-0.5,0.6-0.9,1.3-1.2,2.2c-0.3,0.8-0.4,1.8-0.3,2.9h-2.5
				c0-1.3,0.2-2.5,0.6-3.6s1-2,1.8-2.9c0.8-0.8,1.7-1.4,2.8-1.9c1.1-0.4,2.3-0.7,3.6-0.7c1.1,0,2.1,0.2,3.2,0.4
				c1,0.3,1.9,0.7,2.7,1.3c0.8,0.6,1.4,1.3,1.9,2.2c0.5,0.9,0.8,1.9,0.8,3.2c0,1.5-0.4,2.8-1.2,4c-0.8,1.1-1.9,1.9-3.5,2.2v0.1
				c1.9,0.3,3.2,1,4.2,2.3c1,1.3,1.5,2.8,1.5,4.5c0,1.3-0.3,2.6-0.8,3.6c-0.5,1-1.2,1.9-2.1,2.6c-0.8,0.7-1.9,1.3-3,1.6
				c-1.2,0.3-2.4,0.5-3.6,0.5c-1.4,0-2.7-0.3-4-0.7c-1.2-0.4-2.2-1-3.1-1.9c-0.8-0.8-1.5-1.8-1.9-2.9c-0.4-1.2-0.6-2.5-0.5-4h2.5
				C28.6,42.1,28.8,43.1,29,44z"/>
		</g>
	</g>
	<g>
		<g>
			
				<rect x="16.9" y="14.6" transform="matrix(0.7017 -0.7125 0.7125 0.7017 -7.3227 17.4287)" class="st1" width="0.6" height="5.8"/>
			
				<rect x="16.5" y="14.1" transform="matrix(0.7017 -0.7125 0.7125 0.7017 -7.3229 17.4301)" class="st1" width="1.4" height="6.6"/>
		</g>
		<g>
			
				<rect x="16.9" y="51.8" transform="matrix(0.7017 0.7125 -0.7125 0.7017 44.0537 4.0818)" class="st1" width="0.6" height="5.8"/>
			
				<rect x="13.8" y="53.9" transform="matrix(0.7121 -0.7021 0.7021 0.7121 -33.4322 27.7784)" class="st1" width="6.6" height="1.4"/>
		</g>
		<g>
			
				<rect x="54.1" y="14.6" transform="matrix(-0.7017 -0.7125 0.7125 -0.7017 80.0371 68.4288)" class="st1" width="0.6" height="5.8"/>
			<rect x="51" y="16.8" transform="matrix(0.7122 -0.702 0.702 0.7122 3.3836 43.1719)" class="st1" width="6.6" height="1.4"/>
		</g>
		<g>
			
				<rect x="54.1" y="51.8" transform="matrix(-0.7017 0.7125 -0.7125 -0.7017 131.4136 54.2804)" class="st1" width="0.6" height="5.8"/>
			
				<rect x="53.6" y="51.3" transform="matrix(0.7018 -0.7124 0.7124 0.7018 -22.7265 55.0148)" class="st1" width="1.4" height="6.6"/>
		</g>
		<g>
			<rect x="35.4" y="7.2" class="st1" width="0.7" height="5.8"/>
			<rect x="35" y="6.8" class="st1" width="1.6" height="6.6"/>
		</g>
		<g>
			<rect x="35.4" y="59.2" class="st1" width="0.7" height="5.8"/>
			<rect x="35" y="58.7" class="st1" width="1.6" height="6.6"/>
		</g>
		<g>
			
				<rect x="9.4" y="33.2" transform="matrix(6.123234e-17 -1 1 6.123234e-17 -26.3056 45.8561)" class="st1" width="0.7" height="5.8"/>
			<rect x="6.5" y="35.3" class="st1" width="6.6" height="1.6"/>
		</g>
		<g>
			
				<rect x="61.4" y="33.2" transform="matrix(6.123234e-17 -1 1 6.123234e-17 25.6396 97.8012)" class="st1" width="0.7" height="5.8"/>
			<rect x="58.4" y="35.3" class="st1" width="6.6" height="1.6"/>
		</g>
	</g>
	<g>
		<path class="st1" d="M35.8,71.8C16.1,71.8,0,55.8,0,36C0,16.2,16.1,0.2,35.8,0.2c14.4,0,27.4,8.6,33,21.9l-2,0.9
			c-5.3-12.5-17.4-20.5-31-20.5C17.3,2.4,2.2,17.5,2.2,36s15.1,33.6,33.6,33.6c13.9,0,26.2-8.4,31.3-21.4l2.1,0.8
			C63.8,62.9,50.7,71.8,35.8,71.8z"/>
		<polygon class="st1" points="63.4,24.2 70.1,27.5 72,20.5 		"/>
	</g>
</g>
</svg>
