<?xml version="1.0" encoding="utf-8"?>
<!-- Generator: Adobe Illustrator 16.0.0, SVG Export Plug-In . SVG Version: 6.00 Build 0)  -->
<!DOCTYPE svg PUBLIC "-//W3C//DTD SVG 1.1//EN" "http://www.w3.org/Graphics/SVG/1.1/DTD/svg11.dtd">
<svg version="1.1" id="Layer_3" xmlns="http://www.w3.org/2000/svg" xmlns:xlink="http://www.w3.org/1999/xlink" x="0px" y="0px"
	 width="360px" height="360px" viewBox="0 0 360 360" enable-background="new 0 0 360 360" xml:space="preserve">
<path fill="#666666" stroke="#666666" stroke-width="3.7905" stroke-miterlimit="10" d="M84.87,186.318
	c-6.137,3.248-37.546,19.134-66.79,42.961c-4.332,3.611-7.22,9.027-7.22,15.164v32.49c0,2.168-1.444,3.61-3.61,3.61
	c-2.167,0-3.611-1.442-3.611-3.61v-32.49c0-7.941,3.611-15.524,9.748-20.577c28.521-23.468,59.569-39.353,67.511-43.325v-43.323
	c-6.137-4.693-9.386-11.914-9.386-19.495V70.429c0-25.633,20.939-46.212,46.211-46.212h10.108c25.632,0,46.211,20.939,46.211,46.212
	v47.294c0,7.581-3.611,14.801-9.387,19.495v42.963c7.942,3.971,38.629,19.855,67.512,43.322c6.138,5.054,9.746,12.638,9.746,20.578
	v32.492c0,2.165-1.442,3.61-3.608,3.61s-3.611-1.445-3.611-3.61v-32.492c0-5.774-2.523-11.19-7.221-15.163
	c-29.242-24.188-60.652-40.074-66.789-42.962c-1.806-1.084-3.25-2.888-3.25-5.056v-45.487c0-1.083,0.722-2.166,1.444-2.889
	c5.054-3.249,7.942-9.025,7.942-14.801V70.429c0-21.661-17.689-38.992-38.99-38.992h-10.108c-21.661,0-38.991,17.691-38.991,38.992
	v47.294c0,5.776,2.888,11.553,7.943,14.801c1.083,0.723,1.444,1.806,1.444,2.889v45.851
	C88.119,183.432,86.675,185.596,84.87,186.318z M347.695,233.252c-22.744-19.136-47.654-31.771-54.516-35.381v-34.297
	c5.055-3.973,7.941-10.11,7.941-16.247v-38.63c0-21.3-17.33-38.268-38.271-38.268h-8.304c-21.301,0-38.269,17.329-38.269,38.268
	v38.63c0,6.499,2.888,12.274,7.94,16.247v28.882c0,2.167,1.443,3.61,3.609,3.61s3.608-1.443,3.608-3.61v-30.688
	c0-1.083-0.723-2.167-1.442-2.888c-3.974-2.526-6.14-6.859-6.14-11.553v-38.63c0-17.329,14.08-31.047,31.049-31.047h8.305
	c17.329,0,31.049,14.081,31.049,31.047v38.63c0,4.693-2.165,9.027-6.138,11.553c-1.083,0.722-1.443,1.805-1.443,2.888v37.187
	c0,2.166,1.084,3.971,2.89,4.691c5.056,2.524,30.688,15.521,54.153,35.021c3.607,2.888,5.416,7.222,5.416,11.553v26.354
	c0,2.166,1.441,3.611,3.608,3.611c2.165,0,3.607-1.445,3.607-3.611v-26.354C355.999,243.721,353.111,237.223,347.695,233.252z"/>
<path fill="#EF4323" stroke="#EF4323" stroke-miterlimit="10" d="M142.385,194.623c0-2.167-1.444-3.611-3.61-3.611
	c-2.167,0-3.611,1.444-3.611,3.611c0,3.97-2.166,7.58-5.054,9.747c-2.166,1.442-4.693,2.165-7.22,2.165
	c-6.859,0-12.274-5.414-12.274-12.273c0-2.166-1.445-3.609-3.611-3.609c-2.167,0-3.61,1.443-3.61,3.609
	c0,4.694,2.166,9.387,5.054,12.635l-4.694,111.196c0,1.083,0.361,2.167,1.083,2.891l15.164,13.72
	c0.722,0.721,1.804,1.083,2.526,1.083c1.083,0,1.806-0.362,2.528-1.083l15.162-13.72c0.723-0.724,1.083-1.808,1.083-2.891
	l-5.054-109.752C139.858,204.73,142.385,200.037,142.385,194.623z M122.527,327.117l-11.552-10.107l4.693-104.697
	c2.167,1.084,4.693,1.444,7.221,1.444c2.167,0,4.333-0.36,6.499-1.084l4.692,103.978L122.527,327.117z"/>
</svg>
