<?xml version="1.0" encoding="utf-8"?>
<!-- Generator: Adobe Illustrator 16.0.0, SVG Export Plug-In . SVG Version: 6.00 Build 0)  -->
<!DOCTYPE svg PUBLIC "-//W3C//DTD SVG 1.1//EN" "http://www.w3.org/Graphics/SVG/1.1/DTD/svg11.dtd">
<svg version="1.1" id="Layer_1" xmlns="http://www.w3.org/2000/svg" xmlns:xlink="http://www.w3.org/1999/xlink" x="0px" y="0px"
	 width="72px" height="72px" viewBox="0 0 72 72" enable-background="new 0 0 72 72" xml:space="preserve">
<g>
	<path fill="#666666" d="M66.771,27.742l0.58-9.04c0-0.464-0.23-0.928-0.58-1.16l-8.111-4.057l-4.058-8.112
		c-0.232-0.464-0.693-0.696-1.157-0.58l-9.043,0.58L36.754,0.39c-0.348-0.231-0.928-0.231-1.275,0l-7.65,4.984l-9.04-0.696
		c-0.463,0-0.926,0.232-1.158,0.58l-4.057,8.112L5.46,17.427c-0.464,0.232-0.695,0.695-0.58,1.159l0.58,9.04l-4.983,7.649
		c-0.232,0.347-0.232,0.927,0,1.274L5.46,44.2l-0.695,9.041c0,0.463,0.231,0.927,0.579,1.159l8.114,4.056l4.057,8.111
		c0.232,0.464,0.694,0.695,1.158,0.581l9.041-0.581l7.648,4.985c0.232,0.115,0.464,0.231,0.58,0.231c0.116,0,0.464-0.116,0.58-0.231
		l7.65-4.985l9.041,0.581c0.464,0,0.926-0.231,1.157-0.581l4.058-8.111L66.54,54.4c0.463-0.232,0.695-0.696,0.581-1.159L66.54,44.2
		l4.982-7.65c0.232-0.347,0.232-0.927,0-1.274L66.771,27.742z M64.685,43.272c-0.114,0.231-0.231,0.464-0.231,0.695l0.464,8.691
		l-7.764,3.941c-0.232,0.116-0.349,0.348-0.464,0.464l-3.94,7.766l-8.692-0.464c-0.232,0-0.464,0-0.696,0.232l-7.302,4.751
		l-7.302-4.751c-0.232-0.116-0.464-0.232-0.58-0.232c0,0,0,0-0.116,0l-8.692,0.464l-3.941-7.766
		c-0.116-0.231-0.348-0.348-0.464-0.464l-7.765-3.941l0.464-8.691c0-0.231,0-0.464-0.232-0.695l-4.752-7.302l4.752-7.301
		c0.116-0.232,0.232-0.464,0.232-0.696l-0.464-8.692l7.765-3.941c0.232-0.116,0.348-0.348,0.464-0.464l3.941-7.766l8.692,0.464
		c0.232,0,0.464,0,0.696-0.232l7.302-4.751l7.302,4.751c0.232,0.116,0.464,0.232,0.696,0.232l8.692-0.464l3.94,7.766
		c0.115,0.232,0.348,0.348,0.464,0.464l7.764,3.941l-0.464,8.692c0,0.232,0,0.464,0.231,0.696l4.753,7.301L64.685,43.272z"/>
	<path fill="#EF4123" d="M27.018,33.305c4.172,0,7.417-3.361,7.417-7.418c0-4.056-3.36-7.417-7.417-7.417
		c-4.172,0-7.418,3.361-7.418,7.417C19.6,29.944,22.961,33.305,27.018,33.305z M27.018,20.672c2.781,0,5.099,2.317,5.099,5.1
		c0,2.781-2.318,5.099-5.099,5.099s-5.1-2.318-5.1-5.099C21.918,22.99,24.237,20.672,27.018,20.672z"/>
	<path fill="#EF4123" d="M45.098,38.637c-4.172,0-7.416,3.36-7.416,7.416c0,4.058,3.36,7.42,7.416,7.42
		c4.174,0,7.42-3.362,7.42-7.42C52.518,41.997,49.155,38.637,45.098,38.637z M45.098,51.27c-2.78,0-5.097-2.318-5.097-5.099
		c0-2.782,2.316-5.102,5.097-5.102c2.782,0,5.102,2.319,5.102,5.102C50.199,48.951,47.88,51.27,45.098,51.27z"/>
	
		<rect x="15.063" y="34.77" transform="matrix(-0.7071 0.7071 -0.7071 -0.7071 87.0299 35.8112)" fill="#EF4123" width="42.071" height="2.318"/>
</g>
</svg>
