<?xml version="1.0" encoding="utf-8"?>
<!-- Generator: Adobe Illustrator 16.0.0, SVG Export Plug-In . SVG Version: 6.00 Build 0)  -->
<!DOCTYPE svg PUBLIC "-//W3C//DTD SVG 1.1//EN" "http://www.w3.org/Graphics/SVG/1.1/DTD/svg11.dtd">
<svg version="1.1" id="Layer_3" xmlns="http://www.w3.org/2000/svg" xmlns:xlink="http://www.w3.org/1999/xlink" x="0px" y="0px"
	 width="360px" height="360px" viewBox="0 0 360 360" enable-background="new 0 0 360 360" xml:space="preserve">
<path fill="#EF4123" d="M315.98,54.304l-24.407-36.61c-1.222-1.221-3.052-2.44-4.882-2.44h-85.424c-1.83,0-3.66,1.221-5.49,2.44
	l-24.406,36.61c-1.073,2.146-1.201,4.763,0.027,6.609c0.369,0.763,0.892,1.408,1.542,1.913l42.817,53.522l55.938-0.129
	l43.674-54.592C317.2,59.186,317.2,56.746,315.98,54.304z M222.016,51.865l21.967-21.967l21.966,21.967H222.016z M265.945,64.068
	L243.98,86.034l-21.967-21.966H265.945z M204.32,27.458h25.017l-24.405,24.407h-17.049L204.32,27.458z M209.146,88.475
	l-19.578-24.407h15.361l24.405,24.407H209.146z M259.234,112.881h-30.508l-9.789-12.204h49.953L259.234,112.881z M278.547,88.475
	h-19.921l24.406-24.407h14.825L278.547,88.475z M283.031,51.865l-24.407-24.407h25.019l15.938,24.407H283.031z"/>
<path fill="#666666" d="M215.846,116.348c-12.486,3.168-24.408,8.533-35.478,16.194c-19.354-13.104-41.348-19.66-64.436-19.66
	C51.864,112.881,0,164.746,0,228.814c0,64.067,51.864,115.932,115.932,115.932c22.795,0,44.524-6.389,63.7-19.66
	c19.354,13.104,41.349,19.66,64.437,19.66c64.067,0,115.933-51.865,115.933-115.932c0-54.514-37.551-100.184-88.216-112.597
	 M115.932,332.543c-57.355,0-103.729-46.373-103.729-103.729c0-57.356,46.373-103.729,103.729-103.729
	c21.967,0,42.712,6.712,60.407,20.135c1.982,1.373,3.928,2.822,5.825,4.348c1.896,1.525,3.747,3.126,5.539,4.805
	c1.792,1.677,3.527,3.432,5.195,5.263c0.834,0.916,1.651,1.85,2.451,2.803c0.801,0.953,1.582,1.926,2.344,2.917
	c14.646,18.305,21.968,40.272,21.968,63.458c0,21.307-6.685,41.397-18.835,59.063c-2.606-1.851-5.113-3.854-7.471-6.041
	c-2.203-2.075-4.264-4.291-6.035-6.649c9.154-14.035,14.035-29.898,14.035-46.375c0-18.306-5.491-35.39-16.476-50.034
	c-0.42-0.572-0.844-1.137-1.272-1.694c-5.149-6.694-11.007-12.381-17.831-17.316c-1.706-1.234-3.473-2.421-5.303-3.565
	c-0.244-0.184-0.503-0.335-0.77-0.471c-13.237-8.221-28.21-12.343-43.773-12.343c-46.982,0-85.424,38.44-85.424,85.424
	c0,46.982,38.44,85.425,85.424,85.425c13.871,0,27.737-3.582,39.841-10.146c4.142,4.775,8.692,9.174,13.666,13.304
	C153.013,327.09,134.775,332.543,115.932,332.543z M211.622,163.205c10.114-5.068,21.278-7.611,32.446-7.611
	c40.271,0,73.221,32.949,73.221,73.221c0,40.272-32.949,73.222-73.221,73.222c-11.168,0-22.332-2.543-32.446-7.609
	c13.188-19.444,20.242-41.771,20.242-65.61S224.811,182.648,211.622,163.205z M179.915,264.17
	c-5.936-10.953-9.067-23.152-9.067-35.355c0-12.321,3.188-24.643,9.237-35.355c5.937,10.953,9.067,23.152,9.067,35.355
	C189.152,241.137,185.964,253.457,179.915,264.17z M148.378,163.205c-13.189,19.443-20.243,41.77-20.243,65.609
	c0,23.838,7.054,46.166,20.243,65.609c-10.114,5.068-21.278,7.609-32.446,7.609c-40.271,0-73.221-32.949-73.221-73.221
	c0-40.272,32.949-73.221,73.221-73.221C127.1,155.593,138.264,158.136,148.378,163.205z M244.068,332.543
	c-21.967,0-42.713-6.713-60.407-20.135c-6.94-4.808-13.414-10.545-19.012-17.219c-0.8-0.953-1.581-1.926-2.345-2.918
	c-14.644-18.306-21.966-40.271-21.966-63.457c0-21.31,6.684-41.398,18.834-59.065c1.224,0.867,2.425,1.768,3.599,2.706
	c3.476,2.983,6.69,6.312,9.906,9.986c-9.152,14.033-14.034,29.897-14.034,46.373c0,18.305,5.491,35.391,16.475,50.033
	c6.712,9.153,14.644,16.475,24.407,22.575c0.244,0.185,0.502,0.336,0.77,0.472c13.237,8.223,28.209,12.344,43.773,12.344
	c46.981,0,85.424-38.441,85.424-85.424c0-46.984-38.44-85.425-85.424-85.425c-13.871,0-27.738,3.582-39.842,10.145
	c-4.142-4.776-8.691-9.175-13.666-13.304c16.426-9.693,34.664-15.146,53.508-15.146c57.354,0,103.729,46.374,103.729,103.729
	C347.797,286.168,301.424,332.543,244.068,332.543z"/>
</svg>
