<?xml version="1.0" encoding="utf-8"?>
<!-- Generator: Adobe Illustrator 16.0.0, SVG Export Plug-In . SVG Version: 6.00 Build 0)  -->
<!DOCTYPE svg PUBLIC "-//W3C//DTD SVG 1.1//EN" "http://www.w3.org/Graphics/SVG/1.1/DTD/svg11.dtd">
<svg version="1.1" id="Layer_3" xmlns="http://www.w3.org/2000/svg" xmlns:xlink="http://www.w3.org/1999/xlink" x="0px" y="0px"
	 width="360px" height="360px" viewBox="0 0 360 360" enable-background="new 0 0 360 360" xml:space="preserve">
<path display="none" d="M179.999,95.999c-7.325,0-12-3.552-12-5.999c0-2.448,4.674-6,12-6s12,3.553,12,6
	C191.999,92.448,187.325,95.999,179.999,95.999z"/>
<ellipse display="none" cx="179.698" cy="89.769" rx="24.143" ry="18.231"/>
<g>
	<path fill="#666666" d="M24.222,306h167.999c8.102,0,15.729-2.244,22.051-6.492l102.727-102.562
		c4.511-4.519,7.002-10.543,7.002-16.968c0-6.42-2.491-12.449-7.008-16.968c-4.518-4.519-10.549-7.009-16.969-7.009
		c-6.426,0-12.45,2.49-16.969,7.009l-79.302,79.304l76.002-149.586c0.065-0.139,0.06-0.283,0.113-0.421
		c3.739-4.254,10.309-5.339,15.672-2.231c2.972,1.716,5.125,4.428,6.049,7.638c0.894,3.126,0.521,6.354-1.062,9.097
		c-0.547,0.941-0.805,1.974-0.805,2.987c0,2.076,1.074,4.099,3,5.208c2.862,1.65,6.534,0.672,8.195-2.196
		c3.312-5.723,10.921-7.548,16.992-4.043c6.168,3.562,8.503,11.123,5.189,16.854c-1.656,2.874-0.67,6.54,2.195,8.195
		c0.941,0.546,1.975,0.805,2.995,0.805c2.075,0,4.092-1.074,5.201-3.001c0.006-0.005,0.006-0.018,0.013-0.023
		c10.746-18.624,13.339-40.044,7.284-60.306c-5.94-19.89-19.597-36.84-38.442-47.724c-39.328-22.704-87.258-10.83-109.132,27.029
		c-0.007,0.012-0.007,0.018-0.014,0.024c-1.657,2.874-0.673,6.54,2.196,8.196c2.873,1.655,6.533,0.666,8.195-2.196
		c3.305-5.736,11.016-7.499,17.188-3.93c2.978,1.716,5.126,4.428,6.049,7.638c0.899,3.126,0.528,6.366-1.05,9.102
		c-0.547,0.941-0.805,1.975-0.805,2.994c0,2.076,1.073,4.092,3.002,5.202c2.859,1.65,6.531,0.672,8.193-2.196
		c3.312-5.729,10.926-7.548,16.999-4.044c2.97,1.717,5.117,4.428,6.041,7.638c0.899,3.126,0.528,6.36-1.05,9.097
		c-0.434,0.744-0.637,1.548-0.721,2.357L182.314,258H24.222c-13.236,0-24,10.766-24,24.001S10.986,306,24.222,306z M269.17,60.979
		c-6.449-3.72-13.865-4.277-20.345-2.13c-0.127-0.617-0.282-1.235-0.455-1.854c-1.79-6.21-5.905-11.436-11.581-14.712
		c-2.748-1.584-5.658-2.604-8.6-3.096c20.966-17.544,51.812-20.46,78.168-5.238c26.365,15.222,39.259,43.386,34.55,70.32
		c-1.892-2.305-4.236-4.32-6.985-5.904c-3.972-2.292-8.31-3.378-12.562-3.378c-2.658,0-5.286,0.42-7.776,1.248
		c-0.126-0.618-0.282-1.236-0.455-1.854c-1.794-6.204-5.897-11.43-11.581-14.706c-6.455-3.72-13.871-4.278-20.345-2.13
		c-0.127-0.617-0.283-1.236-0.456-1.854C278.957,69.481,274.848,64.261,269.17,60.979z M24.222,270.001h168.807l98.51-98.508
		c4.493-4.513,12.45-4.501,16.968,0c2.25,2.255,3.492,5.268,3.492,8.483c0,3.222-1.237,6.233-3.492,8.484L207.12,289.848
		c-4.255,2.719-9.392,4.152-14.899,4.152H24.222c-6.618,0-12-5.383-12-11.999C12.222,275.382,17.604,270.001,24.222,270.001z"/>
	<path fill="#666666" d="M350.17,329.688L332.482,312l-51-51.001l76.758-76.757c2.347-2.346,2.347-6.138,0-8.484
		c-2.346-2.346-6.139-2.346-8.484,0L213.516,312H6H0v30.001h345.077c0.131,0,0.251-0.049,0.384-0.062l4.303,4.303
		c1.163,1.17,2.699,1.757,4.234,1.757c1.536,0,3.072-0.587,4.242-1.757c2.347-2.348,2.347-6.141,0-8.484L350.17,329.688z
		 M272.999,269.482L315.516,312h-85.031L272.999,269.482z M12,330v-6h206.482h109.031l6,6H12z"/>
</g>
<path fill="#EF4123" d="M162,72.001h-12.414c-1.098-8.748-4.555-16.751-9.715-23.389l8.803-8.795c2.346-2.347,2.346-6.139,0-8.484
	c-2.347-2.347-6.139-2.347-8.484,0l-8.801,8.796c-6.638-5.159-14.642-8.615-23.384-9.714V18.002c0-3.318-2.687-6.001-5.999-6.001
	s-6.001,2.683-6.001,6.001v12.413c-8.741,1.099-16.745,4.554-23.381,9.714l-8.803-8.796c-2.347-2.347-6.139-2.347-8.483,0
	c-2.346,2.346-2.346,6.138,0,8.484l8.802,8.795c-5.171,6.638-8.628,14.641-9.726,23.389H42c-3.312,0-6,2.683-6,6s2.688,6,6,6h12.414
	c1.098,8.748,4.555,16.752,9.714,23.388l-8.802,8.797c-2.346,2.346-2.346,6.137,0,8.483c1.171,1.169,2.706,1.758,4.241,1.758
	c1.536,0,3.073-0.589,4.243-1.758l8.801-8.796c6.636,5.159,14.64,8.615,23.384,9.713v12.415c0,3.318,2.688,5.999,5.998,5.999
	c3.312,0,6-2.681,6-5.999v-12.415c8.742-1.098,16.747-4.554,23.383-9.713l8.803,8.796c1.169,1.169,2.705,1.758,4.241,1.758
	s3.07-0.589,4.241-1.758c2.346-2.347,2.346-6.138,0-8.483l-8.801-8.797c5.16-6.636,8.615-14.64,9.714-23.388H162
	c3.311,0,5.998-2.682,5.998-6C167.998,74.684,165.311,72.001,162,72.001z M102,114.001c-19.854,0-36-16.146-36-36s16.146-36,36-36
	s35.999,16.146,35.999,36S121.854,114.001,102,114.001z"/>
</svg>
