<?xml version="1.0" encoding="utf-8"?>
<!-- Generator: Adobe Illustrator 19.0.0, SVG Export Plug-In . SVG Version: 6.00 Build 0)  -->
<svg version="1.1" id="Layer_1" xmlns="http://www.w3.org/2000/svg" xmlns:xlink="http://www.w3.org/1999/xlink" x="0px" y="0px"
	 viewBox="0 0 50 50" style="enable-background:new 0 0 50 50;" xml:space="preserve">
<style type="text/css">
	.st0{fill:#454545;}
	.st1{fill:#555655;}
	.st2{fill:#EF4523;}
	.st3{fill:#EF4423;}
	.st4{fill:none;stroke:#555655;stroke-width:1.5;stroke-miterlimit:10;}
</style>
<polygon id="XMLID_26_" class="st0" points="25.4,15.5 25.3,15.4 25.4,15.4 "/>
<rect id="XMLID_30_" x="2" y="31.8" class="st1" width="1.5" height="5.8"/>
<rect id="XMLID_23_" x="6.5" y="36" class="st1" width="1.5" height="12"/>
<rect id="XMLID_7_" x="4" y="2.8" class="st1" width="14" height="1.5"/>
<rect id="XMLID_5_" x="4" y="12.3" class="st1" width="4" height="1.5"/>
<rect id="XMLID_8_" x="4" y="18.3" class="st1" width="6" height="1.5"/>
<rect id="XMLID_11_" x="18" y="40" class="st2" width="1.5" height="8"/>
<rect id="XMLID_13_" x="30.5" y="40" class="st2" width="1.5" height="8"/>
<rect id="XMLID_1_" x="18" y="40" class="st2" width="14" height="1.5"/>
<rect id="XMLID_4_" x="2" y="36" class="st1" width="6" height="1.5"/>
<polygon id="XMLID_19_" class="st1" points="18,4 18,19.7 16.5,21 16.5,4 "/>
<path id="XMLID_3_" class="st3" d="M6,10.4"/>
<polygon id="XMLID_2_" class="st1" points="5.5,9.9 5.5,27 4,28.3 4,9.9 "/>
<rect id="XMLID_9_" x="4" y="3.8" class="st1" width="1.5" height="6.8"/>
<rect id="XMLID_6_" x="10" y="6" class="st1" width="2" height="2"/>
<rect id="XMLID_14_" x="42.3" y="18.5" class="st1" width="1.5" height="23.5"/>
<rect id="XMLID_15_" x="40" y="18.3" class="st1" width="7.8" height="1.5"/>
<rect id="XMLID_16_" x="40" y="40.5" class="st1" width="7.5" height="1.5"/>
<path id="XMLID_28_" class="st4" d="M47,16.8V45c0,1.1-0.9,2-1.9,2h-6.1c-1.1,0-1.9-0.9-1.9-2V16.8l0.8-2L42,4.8l4.3,10.1L47,16.8z"
	/>
<rect id="XMLID_10_" x="41" y="6.3" class="st1" width="2" height="2"/>
<line id="XMLID_12_" class="st4" x1="2.4" y1="32.3" x2="25.4" y2="17.8"/>
<line id="XMLID_17_" class="st4" x1="24.6" y1="17.8" x2="32.4" y2="23"/>
</svg>
