<svg id="Layer_1" data-name="Layer 1" xmlns="http://www.w3.org/2000/svg" viewBox="0 0 360 360"><defs><style>.cls-1{fill:#676767;}.cls-2{fill:#ef4323;}.cls-3{fill:none;}</style></defs><path class="cls-1" d="M128.93,350.86a5.55,5.55,0,0,1-3.73-1.62L39.07,263.12a5.52,5.52,0,0,1-.11-7.71l22.18-23.49a5.56,5.56,0,0,1,4-1.73h.16a6.07,6.07,0,0,1,3.82,1.62L81.16,243.9,124.26,208a5.56,5.56,0,0,1,3.54-1.27h54.8a5.46,5.46,0,0,1,3.91,1.62l14,14h29a20.87,20.87,0,0,1,13.37,4.91l1.62,1.32,45.26-45.27a5.53,5.53,0,0,1,3.49-1.6c.94-.07,1.88-.11,2.81-.11,11.2,0,20,4.92,24.16,13.49a22.37,22.37,0,0,1-3.66,25l-75.14,82a5.52,5.52,0,0,1-4.08,1.79H152.58L145,307.7l10.23,10.23a5.51,5.51,0,0,1,.11,7.71l-22.18,23.49a5.52,5.52,0,0,1-3.93,1.73ZM50.69,259.1,129,337.4,143.57,322l-78.3-78.3ZM89,251.75l47.7,47.71,12.09-6a5.61,5.61,0,0,1,2.48-.58H235l73.5-80.18a11.38,11.38,0,0,0,1.86-12.72c-2.16-4.46-6.85-7-13.2-7.25l-1,0-45.94,45.94.23,1.19a21.92,21.92,0,0,1,.34,3.73v.09a5.86,5.86,0,0,0-.06.64,21.11,21.11,0,0,1-.24,2.89c0,.09-.05.18-.07.27a15.23,15.23,0,0,1-.41,1.52l-.35,1.18c-.1.35-.2.7-.33,1a22.45,22.45,0,0,1-1.41,2.86l-.18.34a21,21,0,0,1-18.14,10.42h-52.5V253.68h51.16a12.36,12.36,0,0,0,9.7-4.66l.12-.19a8.58,8.58,0,0,0,1.16-2.63l0-.13a8.93,8.93,0,0,0,.36-1.9,7.78,7.78,0,0,0,0-1.13,10.55,10.55,0,0,0-.54-2.67l0-.1a3.91,3.91,0,0,0-.28-.86,10.14,10.14,0,0,0-9.21-6H198.25a5.46,5.46,0,0,1-3.91-1.62l-14-14H129.79Z"/><path class="cls-1" d="M176.08,192.64a91.75,91.75,0,1,1,91.75-91.75A91.86,91.86,0,0,1,176.08,192.64Zm0-172.24a80.49,80.49,0,1,0,80.49,80.49A80.58,80.58,0,0,0,176.08,20.4Z"/><path class="cls-2" d="M187,142.72a3.87,3.87,0,0,1-2.79-1.2l-36.81-39a3.78,3.78,0,0,1,2.75-6.38H169.9c5.26,0,10-3.7,11.94-9H150a3.84,3.84,0,0,1-3.83-3.83V81.45A3.84,3.84,0,0,1,150,77.62h31.83a12.81,12.81,0,0,0-12-9H150a3.84,3.84,0,0,1-3.83-3.83V62.9A3.84,3.84,0,0,1,150,59.07h52.1A3.84,3.84,0,0,1,206,62.9v1.89a3.84,3.84,0,0,1-3.83,3.83H187.69a25.29,25.29,0,0,1,3.68,9h10.76A3.84,3.84,0,0,1,206,81.45v1.89a3.84,3.84,0,0,1-3.83,3.83H191.39c-2.06,10.57-10.8,18.29-21.21,18.55h-6.82l27.76,29.06a3.83,3.83,0,0,1,0,5.29l-1.39,1.46A3.87,3.87,0,0,1,187,142.72Z"/><rect class="cls-3" width="360" height="360"/></svg>