<?xml version="1.0" encoding="utf-8"?>
<!-- Generator: Adobe Illustrator 16.0.0, SVG Export Plug-In . SVG Version: 6.00 Build 0)  -->
<!DOCTYPE svg PUBLIC "-//W3C//DTD SVG 1.1//EN" "http://www.w3.org/Graphics/SVG/1.1/DTD/svg11.dtd">
<svg version="1.1" id="Layer_1" xmlns="http://www.w3.org/2000/svg" xmlns:xlink="http://www.w3.org/1999/xlink" x="0px" y="0px"
	 width="360px" height="360px" viewBox="0 0 360 360" enable-background="new 0 0 360 360" xml:space="preserve">
<g>
	<rect x="220.98" y="75.283" fill="#EF4323" width="22.615" height="82.415"/>
	<rect x="190.877" y="104.688" fill="#EF4323" width="83.059" height="23.338"/>
	<path fill="none" stroke="#333333" stroke-width="8" stroke-linecap="round" stroke-linejoin="round" stroke-miterlimit="10" d="
		M49.042,283.537l-27.957-65.14 M267.934,243.4c0,0,70.738-67.275,82.852-46.896c0,0,3.447,2.623,8.385,21.947
		c0,0-49.439,33.15-69.324,54.403c-52.355,55.959-126.091,37.681-126.091,37.681c-32.524,0.535-93.215-55.41-136.518-14.024
		L0.83,231.133c0,0,68.627-44.675,89.497-47.881c20.86-3.22,57.521,10.642,89.771,28.902c32.258,18.255,59.813,5.815,81.641,24.366
		c21.832,18.552-51.062,34.965-65.986,31.874c-14.931-3.1-27.706-15.38-41.532-14.109 M112.671,253.518
		c11.45-0.681,19.827,0.106,19.827,0.106 M273.936,128.026H244.08v29.86h-23.348v-29.86h-29.855v-23.338h29.855v-29.86h23.348v29.86
		h29.855V128.026z M230.861,46.611c-39.045,0-70.689,31.648-70.689,70.689s31.644,70.689,70.689,70.689
		c39.047,0,70.689-31.653,70.689-70.689C301.551,78.264,269.908,46.611,230.861,46.611z"/>
</g>
</svg>
